<svg
   version="1.1"
   width="563.80011"
   height="557.17694"
   viewBox="0 0 563.80011 557.17694"
   xmlns="http://www.w3.org/2000/svg">
  <defs
     id="defs1" />
  <g
     transform="translate(-210.39781,-249.29366)">
    <path
       style="fill:#000000"
       d="m 624.17529,802.47698 c -2.75,-2.22405 -6.28167,-5.0076 -7.84815,-6.18565 -1.56648,-1.17805 -4.04148,-3.09411 -5.5,-4.25791 -5.9835,-4.77444 -61.57573,-41.384 -62.84229,-41.384 -0.34143,0 -2.01325,-1.04928 -3.71517,-2.33172 -1.70191,-1.28245 -6.24439,-4.0506 -10.09439,-6.15145 -3.85,-2.10085 -11.5,-6.59246 -17,-9.98137 -5.5,-3.3889 -13.6,-8.0974 -18,-10.46333 -4.4,-2.36593 -8.45,-4.65209 -9,-5.08035 -0.55,-0.42826 -2.6875,-1.72661 -4.75,-2.88522 -2.0625,-1.15861 -5.2125,-2.93249 -7,-3.94195 -1.7875,-1.00946 -5.275,-2.97084 -7.75,-4.35861 -2.475,-1.38778 -6.1875,-3.48686 -8.25,-4.66462 -2.0625,-1.17776 -5.2125,-2.97205 -7,-3.98732 -1.7875,-1.01526 -11.8,-6.70661 -22.25,-12.64744 -10.45,-5.94083 -20.575,-11.68784 -22.5,-12.77115 -1.925,-1.0833 -4.62693,-2.70445 -6.00429,-3.60255 -4.71517,-3.07452 -6.49698,-4.14621 -7.99571,-4.80912 -0.825,-0.36491 -3.87124,-2.16205 -6.76942,-3.99364 -2.89818,-1.83159 -5.44329,-3.33016 -5.65581,-3.33016 -0.21252,0 -5.71628,-3.35894 -12.23059,-7.46431 -6.5143,-4.10537 -15.21918,-9.51655 -19.34418,-12.02485 -6.62071,-4.02587 -24.79783,-16.07522 -27.5,-18.22936 -0.55,-0.43845 -2.35,-1.65325 -4,-2.69956 -10.17713,-6.45358 -49.86961,-37.43783 -61.5,-48.00737 -12.90205,-11.7252 -38.02624,-37.67125 -43.42732,-44.84791 l -5.85016,-7.77335 2.2474,-7.72665 c 5.45625,-18.75884 9.8787,-33.05247 11.05384,-35.72664 0.48338,-1.1 3.20753,-7.85 6.05367,-15 5.22506,-13.12627 18.64831,-40.93708 23.36559,-48.40974 1.40634,-2.22779 2.55698,-4.28017 2.55698,-4.56085 0,-0.28068 3.4875,-5.76521 7.75,-12.18784 4.2625,-6.42262 9.01982,-13.61759 10.57182,-15.98882 3.58251,-5.47352 2.84819,-6.76562 -3.37573,-5.93999 -2.63871,0.35004 -5.04789,0.23154 -5.35374,-0.26333 -0.30584,-0.49487 2.21906,-3.99344 5.61089,-7.7746 9.49063,-10.57999 36.31743,-37.34133 42.47849,-42.37483 3.02942,-2.475 6.70285,-5.52408 8.16316,-6.77574 1.46031,-1.25166 5.01761,-3.91395 7.90511,-5.91622 2.8875,-2.00226 5.24693,-4.35318 5.24317,-5.22426 -0.004,-0.87108 -1.60598,-2.67294 -3.56049,-4.00413 -5.31552,-3.62034 -12.2485,-11.77182 -15.51392,-18.24058 -4.27077,-8.46036 -9.08083,-28.0257 -7.17093,-29.16837 0.4137,-0.2475 5.92717,1.26933 12.25217,3.37075 22.91262,7.61248 45.3068,8.60189 92.5,4.08679 38.50599,-3.68397 82.16224,-3.70309 106.9301,-0.0468 39.01723,5.75977 89.35522,24.64389 113.22077,42.47437 8.35268,6.24047 12.38065,10.78485 17.34472,19.56845 l 3.60328,6.37576 11.45057,2.09495 c 23.69967,4.33602 41.0526,9.91687 59.25347,19.05644 23.90296,12.00288 40.24846,31.52773 46.82952,55.93828 3.16247,11.73027 3.19223,35.11286 0.0568,44.66213 -4.11526,12.53367 -11.77034,26.48507 -17.42057,31.74906 -3.22444,3.00402 -4.2499,1.30425 -7.84584,-13.00504 -8.17686,-32.53803 -14.08638,-36.93982 -58.42286,-43.51705 -11.90677,-1.76634 -49.97108,-3.42913 -51.84871,-2.26494 -0.83139,0.51549 -0.73449,1.11881 0.34871,2.17125 1.52192,1.4787 17.76113,11.61492 18.60823,11.61492 1.02847,0 20.90497,14.37694 29.98103,21.68569 5.33713,4.29787 11.10042,8.89832 12.80731,10.22322 6.85072,5.31758 18.74225,18.13197 18.41461,19.84371 -0.6014,3.14207 -8.85501,4.54784 -27.31118,4.65171 -16.41066,0.0924 -17.34835,-0.0136 -27.04845,-3.05582 -5.52665,-1.73332 -18.90177,-6.56969 -29.7225,-10.74748 l -19.67404,-7.59598 -4.77751,1.58539 c -12.9669,4.30298 -25.11224,12.07753 -35.7775,22.90211 -13.304,13.50274 -19.49523,28.99514 -18.15006,45.41712 1.27372,15.54979 4.36133,22.11608 22.45203,47.74778 5.88392,8.3366 11.43911,16.4366 12.34487,18 0.90575,1.5634 4.63348,7.56755 8.28382,13.34255 13.02826,20.61124 26.41783,49.89943 32.17748,70.38462 3.41454,12.14438 7.16006,32.76075 8.46361,46.58603 1.31264,13.92167 -0.1433,40.46239 -3.14374,57.30811 -3.07993,17.29201 -2.6402,16.84718 -10.42801,10.5488 z m -6.09625,-52.19328 c 1.36429,-16.81408 -2.78386,-44.53365 -9.92273,-66.30757 -4.48509,-13.67975 -11.72548,-31.18719 -16.47076,-39.82671 -1.51045,-2.75 -4.45219,-8.15 -6.5372,-12 -3.45677,-6.38296 -12.40681,-20.5392 -22.76039,-36 -2.2099,-3.3 -6.28093,-9.375 -9.04674,-13.5 -10.80146,-16.10961 -16.66593,-33.06095 -16.66593,-48.17315 0,-6.13432 2.51628,-18.52561 5.08571,-25.04429 4.40524,-11.1762 17.59673,-26.4692 31.08722,-36.03968 11.25966,-7.98788 30.70992,-16.74288 37.19625,-16.74288 1.33775,0 10.23945,3.1116 19.78155,6.91468 30.73293,12.24883 39.4099,14.96968 54.28369,17.02179 9.2166,1.2716 11.78731,0.24982 7.56558,-3.0071 -1.375,-1.06077 -2.95,-2.27905 -3.5,-2.7073 -1.39572,-1.08675 -13.73556,-8.22694 -22.5,-13.01915 -5.22981,-2.85955 -29.55647,-15.02924 -32.5,-16.25849 -9.25897,-3.86667 -17.89823,-7.63476 -21.90364,-9.55349 -1.597,-0.76502 -3.30624,-1.39094 -3.7983,-1.39094 -0.49207,0 -2.75746,-0.9 -5.03419,-2 -2.27674,-1.1 -4.53079,-2 -5.009,-2 -2.01068,0 -24.67851,-11.35862 -25.15717,-12.60601 -0.95938,-2.50008 4.28526,-3.97783 23.4023,-6.59394 14.92595,-2.04258 78.07375,-1.68547 93.5,0.52875 14.03696,2.0148 20.6041,3.20072 29.42793,5.31419 18.71224,4.48192 28.10762,13.4865 33.09489,31.71828 2.36756,8.655 4.10525,8.52195 7.32715,-0.56102 2.94687,-8.30764 4.65724,-17.06693 4.63436,-23.73391 -0.0205,-5.9794 -3.24755,-21.12353 -5.9763,-28.04618 -2.95216,-7.48942 -10.34686,-18.36473 -16.92306,-24.88859 -5.56933,-5.52499 -16.37637,-13.13157 -18.65667,-13.13157 -0.6939,0 -1.41163,-0.3503 -1.59497,-0.77843 -0.43834,-1.02367 -13.97305,-7.47418 -20.33333,-9.69067 -2.75,-0.95835 -5.9,-2.12212 -7,-2.58616 -5.22975,-2.20619 -24.43295,-6.97747 -36.35936,-9.03395 l -13.26401,-2.28713 -3.58837,-7.35893 c -2.35587,-4.83136 -5.16831,-8.75103 -8.18831,-11.41199 -6.50908,-5.73522 -20.73443,-13.93373 -33.59995,-19.36467 -6.05,-2.5539 -11.68977,-5.00127 -12.53282,-5.43861 -0.84305,-0.43733 -3.09305,-1.12933 -5,-1.53778 -1.90695,-0.40844 -3.91718,-1.08049 -4.46718,-1.49343 -3.34647,-2.51255 -32.9289,-10.50725 -49.5,-13.37745 -21.11487,-3.65722 -27.85103,-4.14016 -57,-4.08654 -23.52604,0.0433 -33.6514,0.50855 -50,2.29759 -11.275,1.23384 -25.9,2.72358 -32.5,3.31054 -11.40258,1.01408 -30.03247,0.64797 -39.25,-0.77133 -3.4623,-0.53311 -4.25,-0.36548 -4.25,0.90446 0,3.70092 15.46244,13.02047 30.25,18.23234 7.5634,2.66571 9.04184,3.74679 6.5,4.75297 -2.20791,0.87401 -20.69184,14.37773 -26.5258,19.37883 -18.39236,15.76669 -32.74481,31.88418 -45.60715,51.21588 -11.36689,17.08407 -18.69483,30.56592 -29.042,53.43106 -8.54458,18.88179 -22.57505,65.77546 -22.57505,75.45199 0,4.50222 0.48596,5.39018 8.0809,14.76585 8.21821,10.14506 21.13802,23.91266 30.97573,33.00835 8.92482,8.25164 20.68065,17.46721 22.28205,17.46721 0.87763,0 2.20352,-1.96323 3.20797,-4.75 4.99193,-13.84978 15.95421,-32.81291 25.72475,-44.50003 5.43884,-6.5057 16.87492,-16.00366 17.96128,-14.91729 0.46067,0.46067 -0.004,2.82427 -1.03289,5.25245 -2.39539,5.65381 -4.60113,14.72823 -6.74883,27.76467 -3.0872,18.73914 0.0468,52.00419 5.8919,62.53757 2.36116,4.25505 9.95425,9.74486 41.26105,29.83183 23.72048,15.21946 26.0578,16.51909 27.3625,15.21439 0.58196,-0.58196 1.71811,-4.5076 2.52477,-8.72364 1.74121,-9.10047 8.88508,-31.55001 11.84092,-37.20995 l 2.08895,-4 0.7191,7.5 c 2.21321,23.0833 6.9036,42.91668 14.19418,60.0203 2.13006,4.9971 4.16908,6.55376 20.66567,15.777 2.475,1.38377 10.8,6.4118 18.5,11.1734 7.7,4.76159 17.825,11.02011 22.5,13.90782 21.46288,13.25743 65.12413,42.12863 78,51.57786 6.325,4.64173 12.22562,8.46293 13.11248,8.49156 1.30707,0.0422 1.74105,-1.53244 2.29127,-8.31366 z m 32.17398,-373.50851 c -0.33696,-0.54522 1.76466,-4.50907 4.67027,-8.80854 3.97393,-5.88028 6.39411,-8.39073 9.76747,-10.1318 5.42913,-2.8021 12.08879,-2.52562 15.24742,0.63301 1.7835,1.7835 1.88547,2.39222 0.81419,4.86021 -1.85936,4.28356 -6.3669,7.30209 -15.41491,10.32278 -10.78518,3.60066 -14.33557,4.33603 -15.08444,3.12434 z m -108.57773,-7.66718 c -12.58513,-3.53155 -23.74806,-11.19321 -27.34149,-18.7658 -4.50137,-9.48594 -9.65924,-13.71357 -22.08347,-18.10065 -3.25873,-1.15068 -6.07826,-2.56322 -6.26562,-3.13898 -0.18735,-0.57577 1.80388,-1.80541 4.42497,-2.73254 14.4413,-5.10818 29.51757,-6.13347 41.76561,-2.84035 13.71595,3.6878 14.91484,4.75018 11.56365,10.24704 -2.53315,4.15506 -2.80232,13.54358 -0.5151,17.96657 3.45174,6.67493 13.49492,8.96524 21.47068,4.89631 4.96683,-2.53389 7.34943,-6.96794 7.38318,-13.74019 0.0144,-2.8875 0.26723,-5.24458 0.56188,-5.23795 0.29464,0.007 4.48312,1.33594 9.30772,2.95401 4.82461,1.61807 11.47307,3.47335 14.77435,4.12284 8.84718,1.74058 9.15214,3.98411 0.72474,5.33171 -3.14053,0.50219 -5.57718,2.17918 -11.85409,8.15844 -4.35579,4.14924 -10.00718,8.45799 -12.59495,9.60268 -6.33673,2.80304 -23.40391,3.49879 -31.32206,1.27686 z"
       id="path1" />
  </g>
</svg>