<?xml version="1.0" encoding="UTF-8"?>
<svg xmlns="http://www.w3.org/2000/svg" viewBox="0 0 400 400" width="400" height="400">
  <defs>
    <!-- Aggressive professional gradients -->
    <linearGradient id="aggressivePrimary" x1="0%" y1="0%" x2="100%" y2="100%">
      <stop offset="0%" style="stop-color:#0f172a;stop-opacity:1" />
      <stop offset="50%" style="stop-color:#1e40af;stop-opacity:1" />
      <stop offset="100%" style="stop-color:#3730a3;stop-opacity:1" />
    </linearGradient>
    
    <linearGradient id="aggressiveSecondary" x1="0%" y1="0%" x2="100%" y2="100%">
      <stop offset="0%" style="stop-color:#1e3a8a;stop-opacity:1" />
      <stop offset="100%" style="stop-color:#4f46e5;stop-opacity:1" />
    </linearGradient>
    
    <linearGradient id="aggressiveAccent" x1="0%" y1="0%" x2="100%" y2="100%">
      <stop offset="0%" style="stop-color:#dc2626;stop-opacity:1" />
      <stop offset="100%" style="stop-color:#ef4444;stop-opacity:1" />
    </linearGradient>
    
    <!-- Sharp white gradient -->
    <linearGradient id="sharpWhite" x1="0%" y1="0%" x2="100%" y2="100%">
      <stop offset="0%" style="stop-color:#ffffff;stop-opacity:1" />
      <stop offset="100%" style="stop-color:#f1f5f9;stop-opacity:1" />
    </linearGradient>
    
    <!-- Aggressive shadow -->
    <filter id="aggressiveShadow" x="-50%" y="-50%" width="200%" height="200%">
      <feGaussianBlur in="SourceAlpha" stdDeviation="8"/>
      <feOffset dx="4" dy="6" result="offsetblur"/>
      <feFlood flood-color="#000000" flood-opacity="0.3"/>
      <feComposite in2="offsetblur" operator="in"/>
      <feMerge>
        <feMergeNode/>
        <feMergeNode in="SourceGraphic"/>
      </feMerge>
    </filter>
    
    <!-- Sharp glow effect -->
    <filter id="sharpGlow" x="-50%" y="-50%" width="200%" height="200%">
      <feGaussianBlur stdDeviation="4" result="coloredBlur"/>
      <feMerge> 
        <feMergeNode in="coloredBlur"/>
        <feMergeNode in="SourceGraphic"/>
      </feMerge>
    </filter>
  </defs>
  
  <!-- Background for contrast -->
  <rect x="10" y="10" width="380" height="380" fill="#f8fafc" stroke="url(#aggressivePrimary)" stroke-width="2" opacity="0.1" rx="20"/>
  
  <!-- Aggressive eagle design -->
  <g filter="url(#aggressiveShadow)">
    
    <!-- Left wing - sharp, angular, aggressive -->
    <path d="M 200 200 
             L 150 170
             Q 100 140, 50 110
             Q 20 90, 10 50
             Q 4 20, 30 10
             Q 56 0, 90 16
             Q 130 36, 160 70
             Q 180 100, 190 140
             Q 196 170, 200 200
             Z" 
          fill="url(#aggressivePrimary)" 
          opacity="0.95"/>
    
    <!-- Left wing - sharp angular details -->
    <path d="M 150 170
             Q 110 144, 70 120
             Q 40 100, 30 70
             Q 24 50, 44 36
             Q 64 22, 96 32
             Q 128 42, 152 72
             Q 170 96, 184 130
             Q 192 156, 198 176
             L 200 200
             Z" 
          fill="url(#aggressiveSecondary)" 
          opacity="0.85"/>
    
    <!-- Left wing - aggressive feather shards -->
    <path d="M 120 150
             L 90 130
             L 70 100
             L 84 96
             L 110 116
             L 136 136
             L 150 156
             L 170 176
             L 184 190
             L 200 200
             Z" 
          fill="url(#aggressiveAccent)" 
          opacity="0.7"/>
    
    <!-- Additional left wing details -->
    <path d="M 140 160
             L 115 145
             L 95 120
             L 105 117
             L 125 135
             L 145 150
             L 160 170
             L 175 185
             L 190 195
             L 200 200
             Z" 
          fill="url(#aggressivePrimary)" 
          opacity="0.6"/>
    
    <!-- Right wing - sharp, angular, aggressive -->
    <path d="M 200 200 
             L 250 170
             Q 300 140, 350 110
             Q 380 90, 390 50
             Q 396 20, 370 10
             Q 344 0, 310 16
             Q 270 36, 240 70
             Q 220 100, 210 140
             Q 204 170, 200 200
             Z" 
          fill="url(#aggressivePrimary)" 
          opacity="0.95"/>
    
    <!-- Right wing - sharp angular details -->
    <path d="M 250 170
             Q 290 144, 330 120
             Q 360 100, 370 70
             Q 376 50, 356 36
             Q 336 22, 304 32
             Q 272 42, 248 72
             Q 230 96, 216 130
             Q 208 156, 202 176
             L 200 200
             Z" 
          fill="url(#aggressiveSecondary)" 
          opacity="0.85"/>
    
    <!-- Right wing - aggressive feather shards -->
    <path d="M 280 150
             L 310 130
             L 330 100
             L 316 96
             L 290 116
             L 264 136
             L 250 156
             L 230 176
             L 216 190
             L 200 200
             Z" 
          fill="url(#aggressiveAccent)" 
          opacity="0.7"/>
    
    <!-- Additional right wing details -->
    <path d="M 260 160
             L 285 145
             L 305 120
             L 295 117
             L 275 135
             L 255 150
             L 240 170
             L 225 185
             L 210 195
             L 200 200
             Z" 
          fill="url(#aggressivePrimary)" 
          opacity="0.6"/>
    
    <!-- Aggressive body - angular, powerful -->
    <path d="M 200 200
             L 170 190
             L 160 210
             L 170 250
             L 200 270
             L 230 250
             L 240 210
             L 230 190
             L 200 200
             Z" 
          fill="url(#aggressivePrimary)"/>
    
    <!-- Sharp head - aggressive profile -->
    <path d="M 200 190
             L 176 170
             L 170 150
             L 180 140
             L 200 144
             L 220 140
             L 230 150
             L 224 170
             L 200 190
             Z" 
          fill="url(#sharpWhite)"/>
    
    <!-- Aggressive eye - sharp, intense -->
    <path d="M 176 164
             L 184 160
             L 192 164
             L 188 168
             L 180 168
             L 176 164
             Z" 
          fill="#0f172a"/>
    <circle cx="182" cy="164" r="2" fill="#ffffff"/>
    <circle cx="180" cy="163" r="0.8" fill="#ffffff" opacity="0.8"/>
    
    <!-- Sharp beak - aggressive, hooked -->
    <path d="M 170 156
             L 150 152
             L 144 156
             L 150 160
             L 170 158
             L 170 156
             Z" 
          fill="#dc2626"/>
    <path d="M 170 158
             L 150 160
             L 144 156
             L 150 152
             L 170 156
             L 170 158
             Z" 
          fill="#991b1b" 
          opacity="0.7"/>
    
    <!-- Beak highlight -->
    <path d="M 170 157
             L 155 159
             L 150 157
             L 155 155
             L 170 157
             Z" 
          fill="#ef4444" 
          opacity="0.5"/>
    
    <!-- Aggressive chest markings -->
    <path d="M 190 200
             L 180 210
             L 184 230
             L 200 236
             L 216 230
             L 220 210
             L 210 200
             L 200 204
             L 190 200
             Z" 
          fill="url(#sharpWhite)" 
          opacity="0.9"/>
    
    <!-- Chest detail lines -->
    <path d="M 185 210 L 195 215" stroke="url(#aggressiveSecondary)" stroke-width="1" opacity="0.5"/>
    <path d="M 205 215 L 215 210" stroke="url(#aggressiveSecondary)" stroke-width="1" opacity="0.5"/>
    
    <!-- Sharp tail feathers -->
    <path d="M 190 260
             L 184 290
             L 188 286
             L 190 260
             Z" 
          fill="url(#aggressivePrimary)" 
          opacity="0.9"/>
    <path d="M 200 260
             L 200 294
             L 200 286
             L 200 260
             Z" 
          fill="url(#aggressivePrimary)" 
          opacity="0.9"/>
    <path d="M 210 260
             L 216 290
             L 212 286
             L 210 260
             Z" 
          fill="url(#aggressivePrimary)" 
          opacity="0.9"/>
    
    <!-- Tail feather details -->
    <path d="M 192 270
             L 188 285
             L 190 283
             L 192 270
             Z" 
          fill="url(#aggressiveSecondary)" 
          opacity="0.7"/>
    <path d="M 200 270
             L 200 287
             L 200 283
             L 200 270
             Z" 
          fill="url(#aggressiveSecondary)" 
          opacity="0.7"/>
    <path d="M 208 270
             L 212 285
             L 210 283
             L 208 270
             Z" 
          fill="url(#aggressiveSecondary)" 
          opacity="0.7"/>
  </g>
  
  <!-- Aggressive motion lines -->
  <g opacity="0.4">
    <path d="M 40 160 L 70 156" stroke="url(#aggressiveAccent)" stroke-width="4" stroke-linecap="round"/>
    <path d="M 30 190 L 60 186" stroke="url(#aggressiveSecondary)" stroke-width="3" stroke-linecap="round"/>
    <path d="M 20 220 L 50 216" stroke="url(#aggressivePrimary)" stroke-width="2" stroke-linecap="round"/>
    <path d="M 360 160 L 330 156" stroke="url(#aggressiveAccent)" stroke-width="4" stroke-linecap="round"/>
    <path d="M 370 190 L 340 186" stroke="url(#aggressiveSecondary)" stroke-width="3" stroke-linecap="round"/>
    <path d="M 380 220 L 350 216" stroke="url(#aggressivePrimary)" stroke-width="2" stroke-linecap="round"/>
    
    <!-- Additional motion lines -->
    <path d="M 50 240 L 80 236" stroke="url(#aggressiveAccent)" stroke-width="1.5" stroke-linecap="round" opacity="0.6"/>
    <path d="M 350 240 L 320 236" stroke="url(#aggressiveAccent)" stroke-width="1.5" stroke-linecap="round" opacity="0.6"/>
  </g>
  
  <!-- Intense aggressive glow -->
  <g opacity="0.15" filter="url(#sharpGlow)">
    <ellipse cx="200" cy="170" rx="70" ry="50" fill="url(#aggressivePrimary)"/>
  </g>
  
  <!-- Eye intensity highlight -->
  <g opacity="0.3" filter="url(#sharpGlow)">
    <ellipse cx="182" cy="164" rx="8" ry="6" fill="#dc2626"/>
  </g>
</svg>